<svg width="24" height="25" viewBox="0 0 24 25" fill="none" xmlns="http://www.w3.org/2000/svg">
<path d="M3.0918 7.4909L9.78291 4.35396C11.2039 3.68776 12.7964 3.68776 14.2174 4.35396L20.9086 7.49095C22.3641 8.1733 22.3641 10.5354 20.9086 11.2177L14.2175 14.3547C12.7965 15.0209 11.204 15.0209 9.783 14.3547L5.00019 12.1124" stroke="black" stroke-width="1.5" stroke-linecap="round"/>
<path d="M2.5 15.8543V12.9919C2.5 11.7127 2.5 11.0731 2.83032 10.5721C3.16064 10.0712 3.74853 9.81922 4.92432 9.31531L6 8.85431" stroke="black" stroke-width="1.5" stroke-linecap="round" stroke-linejoin="round"/>
<path d="M19 12.3543V17.4797C19 18.4878 18.4965 19.4315 17.6147 19.9199C16.1463 20.7331 13.796 21.8543 12 21.8543C10.204 21.8543 7.8537 20.7331 6.38533 19.9199C5.5035 19.4315 5 18.4878 5 17.4797V12.3543" stroke="black" stroke-width="1.5" stroke-linecap="round"/>
</svg>
