<svg width="20" height="20" viewBox="0 0 20 20" fill="none" xmlns="http://www.w3.org/2000/svg">
<rect width="20" height="20" fill="#F8F8F8"/>
<path d="M2.72843 12.7464C2.02015 11.8263 1.66602 11.3662 1.66602 10C1.66602 8.63389 2.02015 8.17381 2.72843 7.25365C4.14265 5.41634 6.51444 3.33337 9.99935 3.33337C13.4843 3.33337 15.856 5.41634 17.2703 7.25365C17.9785 8.17381 18.3327 8.63389 18.3327 10C18.3327 11.3662 17.9785 11.8263 17.2703 12.7464C15.856 14.5837 13.4843 16.6667 9.99935 16.6667C6.51444 16.6667 4.14265 14.5837 2.72843 12.7464Z" stroke="black" stroke-width="1.5"/>
<path d="M12.5 10C12.5 11.3807 11.3807 12.5 10 12.5C8.61929 12.5 7.5 11.3807 7.5 10C7.5 8.61929 8.61929 7.5 10 7.5C11.3807 7.5 12.5 8.61929 12.5 10Z" stroke="black" stroke-width="1.5"/>
</svg>
