<svg width="21" height="21" viewBox="0 0 21 21" fill="none" xmlns="http://www.w3.org/2000/svg">
<path d="M6.6712 10.0512C6.6712 8.20873 8.16401 6.71468 10.006 6.71468C11.848 6.71468 13.3416 8.20873 13.3416 10.0512C13.3416 11.8938 11.848 13.3878 10.006 13.3878C8.16401 13.3878 6.6712 11.8938 6.6712 10.0512ZM4.86804 10.0512C4.86804 12.8898 7.1683 15.1907 10.006 15.1907C12.8437 15.1907 15.144 12.8898 15.144 10.0512C15.144 7.21273 12.8437 4.9118 10.006 4.9118C7.1683 4.9118 4.86804 7.21273 4.86804 10.0512ZM14.1466 4.70802C14.1465 4.94557 14.2169 5.17781 14.3487 5.37538C14.4806 5.57295 14.6681 5.72697 14.8874 5.81796C15.1068 5.90895 15.3482 5.93283 15.5811 5.88658C15.8141 5.84033 16.0281 5.72603 16.1961 5.55812C16.364 5.39022 16.4785 5.17626 16.5249 4.94329C16.5713 4.71032 16.5477 4.46882 16.4569 4.24932C16.3661 4.02982 16.2122 3.84217 16.0148 3.71012C15.8174 3.57806 15.5853 3.50753 15.3478 3.50744H15.3474C15.029 3.50758 14.7238 3.63411 14.4987 3.85921C14.2735 4.08432 14.1469 4.38961 14.1466 4.70802ZM5.96358 18.1982C4.98803 18.1538 4.45779 17.9913 4.10542 17.8539C3.63826 17.672 3.30494 17.4553 2.95449 17.1053C2.60404 16.7552 2.38711 16.4221 2.20604 15.9548C2.06868 15.6025 1.90618 15.0719 1.86184 14.0961C1.81333 13.0411 1.80364 12.7242 1.80364 10.0513C1.80364 7.37847 1.81413 7.06243 1.86184 6.00654C1.90626 5.03071 2.06996 4.5012 2.20604 4.14784C2.38791 3.68055 2.60452 3.34713 2.95449 2.99658C3.30446 2.64603 3.63746 2.42904 4.10542 2.24792C4.45763 2.11052 4.98803 1.94797 5.96358 1.90361C7.01829 1.85509 7.33512 1.8454 10.006 1.8454C12.6769 1.8454 12.994 1.85589 14.0496 1.90361C15.0252 1.94805 15.5545 2.1118 15.9078 2.24792C16.3749 2.42904 16.7083 2.64651 17.0587 2.99658C17.4092 3.34665 17.6253 3.68055 17.8072 4.14784C17.9445 4.50016 18.107 5.03071 18.1514 6.00654C18.1999 7.06243 18.2096 7.37847 18.2096 10.0513C18.2096 12.7242 18.1999 13.0402 18.1514 14.0961C18.1069 15.0719 17.9436 15.6023 17.8072 15.9548C17.6253 16.4221 17.4087 16.7555 17.0587 17.1053C16.7087 17.455 16.3749 17.672 15.9078 17.8539C15.5556 17.9913 15.0252 18.1539 14.0496 18.1982C12.9949 18.2468 12.6781 18.2565 10.006 18.2565C7.33392 18.2565 7.01797 18.2468 5.96358 18.1982ZM5.88073 0.102972C4.81553 0.151495 4.08765 0.320445 3.45199 0.567865C2.79367 0.823372 2.23638 1.16616 1.67949 1.72233C1.12259 2.2785 0.780788 2.83684 0.525355 3.49534C0.278007 4.13159 0.109105 4.85928 0.0605963 5.92478C0.0112868 6.99197 0 7.33315 0 10.0512C0 12.7693 0.0112868 13.1105 0.0605963 14.1777C0.109105 15.2433 0.278007 15.9709 0.525355 16.6071C0.780788 17.2653 1.12267 17.8242 1.67949 18.3802C2.2363 18.9361 2.79367 19.2784 3.45199 19.5346C4.08885 19.782 4.81553 19.951 5.88073 19.9995C6.94817 20.048 7.28869 20.0601 10.006 20.0601C12.7233 20.0601 13.0644 20.0488 14.1313 19.9995C15.1966 19.951 15.9239 19.782 16.56 19.5346C17.2179 19.2784 17.7756 18.9363 18.3325 18.3802C18.8894 17.824 19.2305 17.2653 19.4866 16.6071C19.734 15.9709 19.9037 15.2432 19.9514 14.1777C19.9999 13.1097 20.0112 12.7693 20.0112 10.0512C20.0112 7.33315 19.9999 6.99197 19.9514 5.92478C19.9029 4.8592 19.734 4.13119 19.4866 3.49534C19.2305 2.83724 18.8885 2.27939 18.3325 1.72233C17.7765 1.16528 17.2179 0.823372 16.5608 0.567865C15.9239 0.320445 15.1965 0.150695 14.1321 0.102972C13.0652 0.0544491 12.7241 0.0423584 10.0068 0.0423584C7.28949 0.0423584 6.94817 0.0536484 5.88073 0.102972Z" fill="white"/>
<path d="M6.6712 10.0512C6.6712 8.20873 8.16401 6.71468 10.006 6.71468C11.848 6.71468 13.3416 8.20873 13.3416 10.0512C13.3416 11.8938 11.848 13.3878 10.006 13.3878C8.16401 13.3878 6.6712 11.8938 6.6712 10.0512ZM4.86804 10.0512C4.86804 12.8898 7.1683 15.1907 10.006 15.1907C12.8437 15.1907 15.144 12.8898 15.144 10.0512C15.144 7.21273 12.8437 4.9118 10.006 4.9118C7.1683 4.9118 4.86804 7.21273 4.86804 10.0512ZM14.1466 4.70802C14.1465 4.94557 14.2169 5.17781 14.3487 5.37538C14.4806 5.57295 14.6681 5.72697 14.8874 5.81796C15.1068 5.90895 15.3482 5.93283 15.5811 5.88658C15.8141 5.84033 16.0281 5.72603 16.1961 5.55812C16.364 5.39022 16.4785 5.17626 16.5249 4.94329C16.5713 4.71032 16.5477 4.46882 16.4569 4.24932C16.3661 4.02982 16.2122 3.84217 16.0148 3.71012C15.8174 3.57806 15.5853 3.50753 15.3478 3.50744H15.3474C15.029 3.50758 14.7238 3.63411 14.4987 3.85921C14.2735 4.08432 14.1469 4.38961 14.1466 4.70802ZM5.96358 18.1982C4.98803 18.1538 4.45779 17.9913 4.10542 17.8539C3.63826 17.672 3.30494 17.4553 2.95449 17.1053C2.60404 16.7552 2.38711 16.4221 2.20604 15.9548C2.06868 15.6025 1.90618 15.0719 1.86184 14.0961C1.81333 13.0411 1.80364 12.7242 1.80364 10.0513C1.80364 7.37847 1.81413 7.06243 1.86184 6.00654C1.90626 5.03071 2.06996 4.5012 2.20604 4.14784C2.38791 3.68055 2.60452 3.34713 2.95449 2.99658C3.30446 2.64603 3.63746 2.42904 4.10542 2.24792C4.45763 2.11052 4.98803 1.94797 5.96358 1.90361C7.01829 1.85509 7.33512 1.8454 10.006 1.8454C12.6769 1.8454 12.994 1.85589 14.0496 1.90361C15.0252 1.94805 15.5545 2.1118 15.9078 2.24792C16.3749 2.42904 16.7083 2.64651 17.0587 2.99658C17.4092 3.34665 17.6253 3.68055 17.8072 4.14784C17.9445 4.50016 18.107 5.03071 18.1514 6.00654C18.1999 7.06243 18.2096 7.37847 18.2096 10.0513C18.2096 12.7242 18.1999 13.0402 18.1514 14.0961C18.1069 15.0719 17.9436 15.6023 17.8072 15.9548C17.6253 16.4221 17.4087 16.7555 17.0587 17.1053C16.7087 17.455 16.3749 17.672 15.9078 17.8539C15.5556 17.9913 15.0252 18.1539 14.0496 18.1982C12.9949 18.2468 12.6781 18.2565 10.006 18.2565C7.33392 18.2565 7.01797 18.2468 5.96358 18.1982ZM5.88073 0.102972C4.81553 0.151495 4.08765 0.320445 3.45199 0.567865C2.79367 0.823372 2.23638 1.16616 1.67949 1.72233C1.12259 2.2785 0.780788 2.83684 0.525355 3.49534C0.278007 4.13159 0.109105 4.85928 0.0605963 5.92478C0.0112868 6.99197 0 7.33315 0 10.0512C0 12.7693 0.0112868 13.1105 0.0605963 14.1777C0.109105 15.2433 0.278007 15.9709 0.525355 16.6071C0.780788 17.2653 1.12267 17.8242 1.67949 18.3802C2.2363 18.9361 2.79367 19.2784 3.45199 19.5346C4.08885 19.782 4.81553 19.951 5.88073 19.9995C6.94817 20.048 7.28869 20.0601 10.006 20.0601C12.7233 20.0601 13.0644 20.0488 14.1313 19.9995C15.1966 19.951 15.9239 19.782 16.56 19.5346C17.2179 19.2784 17.7756 18.9363 18.3325 18.3802C18.8894 17.824 19.2305 17.2653 19.4866 16.6071C19.734 15.9709 19.9037 15.2432 19.9514 14.1777C19.9999 13.1097 20.0112 12.7693 20.0112 10.0512C20.0112 7.33315 19.9999 6.99197 19.9514 5.92478C19.9029 4.8592 19.734 4.13119 19.4866 3.49534C19.2305 2.83724 18.8885 2.27939 18.3325 1.72233C17.7765 1.16528 17.2179 0.823372 16.5608 0.567865C15.9239 0.320445 15.1965 0.150695 14.1321 0.102972C13.0652 0.0544491 12.7241 0.0423584 10.0068 0.0423584C7.28949 0.0423584 6.94817 0.0536484 5.88073 0.102972Z" fill="white"/>
</svg>
