<svg width="16" height="17" viewBox="0 0 16 17" fill="none" xmlns="http://www.w3.org/2000/svg">
<path d="M5.33696 8.0408C5.33696 6.56679 6.53121 5.37155 8.0048 5.37155C9.47839 5.37155 10.6733 6.56679 10.6733 8.0408C10.6733 9.51482 9.47839 10.7101 8.0048 10.7101C6.53121 10.7101 5.33696 9.51482 5.33696 8.0408ZM3.89443 8.0408C3.89443 10.3116 5.73464 12.1524 8.0048 12.1524C10.275 12.1524 12.1152 10.3116 12.1152 8.0408C12.1152 5.76999 10.275 3.92925 8.0048 3.92925C5.73464 3.92925 3.89443 5.76999 3.89443 8.0408ZM11.3173 3.76622C11.3172 3.95626 11.3735 4.14206 11.479 4.30011C11.5845 4.45816 11.7344 4.58138 11.9099 4.65417C12.0854 4.72697 12.2786 4.74607 12.4649 4.70907C12.6513 4.67207 12.8225 4.58063 12.9568 4.4463C13.0912 4.31198 13.1828 4.14081 13.2199 3.95444C13.2571 3.76806 13.2381 3.57486 13.1655 3.39926C13.0929 3.22366 12.9698 3.07354 12.8119 2.9679C12.654 2.86226 12.4683 2.80583 12.2783 2.80575H12.2779C12.0232 2.80587 11.779 2.90709 11.5989 3.08718C11.4188 3.26726 11.3175 3.51149 11.3173 3.76622ZM4.77086 14.5584C3.99042 14.5228 3.56623 14.3928 3.28434 14.283C2.91061 14.1374 2.64395 13.9641 2.36359 13.684C2.08323 13.404 1.90969 13.1375 1.76483 12.7637C1.65494 12.4818 1.52495 12.0574 1.48947 11.2767C1.45066 10.4327 1.44291 10.1792 1.44291 8.04087C1.44291 5.90258 1.4513 5.64975 1.48947 4.80503C1.52501 4.02437 1.65597 3.60076 1.76483 3.31808C1.91033 2.94424 2.08362 2.67751 2.36359 2.39707C2.64357 2.11663 2.90997 1.94304 3.28434 1.79814C3.56611 1.68822 3.99042 1.55818 4.77086 1.52269C5.61463 1.48388 5.86809 1.47612 8.0048 1.47612C10.1415 1.47612 10.3952 1.48452 11.2397 1.52269C12.0201 1.55825 12.4436 1.68924 12.7262 1.79814C13.1 1.94304 13.3666 2.11701 13.647 2.39707C13.9273 2.67713 14.1002 2.94424 14.2457 3.31808C14.3556 3.59993 14.4856 4.02437 14.5211 4.80503C14.5599 5.64975 14.5676 5.90258 14.5676 8.04087C14.5676 10.1792 14.5599 10.432 14.5211 11.2767C14.4856 12.0574 14.3549 12.4817 14.2457 12.7637C14.1002 13.1375 13.9269 13.4042 13.647 13.684C13.367 13.9638 13.1 14.1374 12.7262 14.283C12.4445 14.3929 12.0201 14.5229 11.2397 14.5584C10.3959 14.5972 10.1425 14.605 8.0048 14.605C5.86713 14.605 5.61437 14.5972 4.77086 14.5584ZM4.70458 0.0821825C3.85242 0.121001 3.27012 0.256161 2.76159 0.454097C2.23494 0.658502 1.7891 0.93273 1.34359 1.37767C0.898075 1.82261 0.624631 2.26928 0.420284 2.79608C0.222405 3.30508 0.0872843 3.88723 0.0484771 4.73963C0.00902942 5.59338 0 5.86633 0 8.0408C0 10.2153 0.00902942 10.4882 0.0484771 11.342C0.0872843 12.1944 0.222405 12.7765 0.420284 13.2855C0.624631 13.812 0.898139 14.2592 1.34359 14.7039C1.78904 15.1487 2.23494 15.4225 2.76159 15.6275C3.27108 15.8254 3.85242 15.9606 4.70458 15.9994C5.55853 16.0382 5.83095 16.0479 8.0048 16.0479C10.1786 16.0479 10.4515 16.0389 11.305 15.9994C12.1572 15.9606 12.7392 15.8254 13.248 15.6275C13.7743 15.4225 14.2205 15.1489 14.666 14.7039C15.1115 14.259 15.3844 13.812 15.5893 13.2855C15.7872 12.7765 15.923 12.1944 15.9611 11.342C15.9999 10.4876 16.009 10.2153 16.009 8.0408C16.009 5.86633 15.9999 5.59338 15.9611 4.73963C15.9223 3.88716 15.7872 3.30476 15.5893 2.79608C15.3844 2.2696 15.1108 1.82331 14.666 1.37767C14.2212 0.932025 13.7743 0.658502 13.2486 0.454097C12.7392 0.256161 12.1572 0.12036 11.3057 0.0821825C10.4522 0.043364 10.1793 0.0336914 8.00544 0.0336914C5.83159 0.0336914 5.55853 0.0427234 4.70458 0.0821825Z" fill="white"/>
</svg>
