<svg width="18" height="17" viewBox="0 0 18 17" fill="none" xmlns="http://www.w3.org/2000/svg">
<path d="M4.3989 16.1054V5.30025H0.810626V16.1054H4.39928H4.3989ZM2.60551 3.82524C3.85656 3.82524 4.63542 2.99553 4.63542 1.95863C4.612 0.898104 3.85656 0.0915527 2.62931 0.0915527C1.40121 0.0915527 0.599121 0.898104 0.599121 1.95854C0.599121 2.99544 1.3777 3.82515 2.582 3.82515H2.60523L2.60551 3.82524ZM6.38506 16.1054H9.97306V10.072C9.97306 9.74945 9.99648 9.4261 10.0913 9.19575C10.3505 8.55027 10.9409 7.8821 11.9324 7.8821C13.2305 7.8821 13.7501 8.87287 13.7501 10.3256V16.1054H17.338V9.91005C17.338 6.59131 15.568 5.04693 13.2073 5.04693C11.2718 5.04693 10.4217 6.12967 9.94946 6.86713H9.97334V5.30062H6.38525C6.43209 6.31427 6.38497 16.1058 6.38497 16.1058L6.38506 16.1054Z" fill="white"/>
</svg>
