<svg width="52" height="52" viewBox="0 0 52 52" fill="none" xmlns="http://www.w3.org/2000/svg">
<circle cx="26" cy="26" r="26" fill="white"/>
<g clip-path="url(#clip0_329_2975)">
<path d="M20 18V34C19.9999 34.1779 20.0474 34.3526 20.1374 34.5061C20.2274 34.6596 20.3567 34.7863 20.512 34.8731C20.6673 34.9599 20.843 35.0038 21.0209 35C21.1988 34.9963 21.3725 34.9452 21.524 34.852L34.524 26.852C34.6696 26.7625 34.7898 26.6372 34.8733 26.4881C34.9567 26.3389 35.0005 26.1709 35.0005 26C35.0005 25.8291 34.9567 25.661 34.8733 25.5119C34.7898 25.3627 34.6696 25.2374 34.524 25.148L21.524 17.148C21.3725 17.0547 21.1988 17.0036 21.0209 16.9999C20.843 16.9962 20.6673 17.04 20.512 17.1268C20.3567 17.2137 20.2274 17.3404 20.1374 17.4938C20.0474 17.6473 19.9999 17.822 20 18Z" fill="#30B258"/>
</g>
<defs>
<clipPath id="clip0_329_2975">
<rect width="24" height="24" fill="white" transform="translate(14 14)"/>
</clipPath>
</defs>
</svg>
