<svg width="24" height="25" viewBox="0 0 24 25" fill="none" xmlns="http://www.w3.org/2000/svg">
<path d="M3 12.8543C3 16.6255 3 20.5112 4.31802 21.6827C5.63604 22.8543 7.75736 22.8543 12 22.8543C16.2426 22.8543 18.364 22.8543 19.682 21.6827C21 20.5112 21 16.6255 21 12.8543" stroke="black" stroke-width="1.5"/>
<path d="M14.6603 15.0562L20.6676 13.254C21.2631 13.0754 21.5609 12.9861 21.7498 12.772C21.7866 12.7303 21.8199 12.6855 21.8492 12.6383C22 12.3958 22 12.085 22 11.4632C22 9.01308 22 7.78801 21.327 6.9609C21.1977 6.80193 21.0524 6.65664 20.8934 6.52729C20.0663 5.85431 18.8412 5.85431 16.3911 5.85431H7.60893C5.15877 5.85431 3.9337 5.85431 3.10659 6.52729C2.94763 6.65664 2.80233 6.80193 2.67298 6.9609C2 7.78801 2 9.01308 2 11.4632C2 12.085 2 12.3958 2.15078 12.6383C2.18015 12.6855 2.21341 12.7303 2.25021 12.772C2.43915 12.9861 2.7369 13.0754 3.3324 13.254L9.33968 15.0562" stroke="black" stroke-width="1.5"/>
<path d="M6.5 5.85431C7.32344 5.83344 8.15925 5.30922 8.43944 4.53463C8.44806 4.5108 8.4569 4.4843 8.47457 4.43128L8.50023 4.35431C8.54241 4.22775 8.56351 4.16445 8.58608 4.10831C8.87427 3.39143 9.54961 2.90467 10.3208 2.85797C10.3812 2.85431 10.4479 2.85431 10.5814 2.85431H13.4191C13.5525 2.85431 13.6192 2.85431 13.6796 2.85797C14.4508 2.90467 15.1262 3.39143 15.4144 4.10831C15.4369 4.16445 15.458 4.22774 15.5002 4.35431L15.5259 4.43128C15.5435 4.48399 15.5524 4.51087 15.561 4.53463C15.8412 5.30922 16.6766 5.83344 17.5 5.85431" stroke="black" stroke-width="1.5"/>
<path d="M14 13.3543H10C9.72386 13.3543 9.5 13.5782 9.5 13.8543V16.0158C9.5 16.2202 9.62448 16.4041 9.8143 16.48L10.5144 16.7601C11.4681 17.1415 12.5319 17.1415 13.4856 16.7601L14.1857 16.48C14.3755 16.4041 14.5 16.2202 14.5 16.0158V13.8543C14.5 13.5782 14.2761 13.3543 14 13.3543Z" stroke="black" stroke-width="1.5" stroke-linecap="round"/>
</svg>
