<svg width="22" height="22" viewBox="0 0 22 22" fill="none" xmlns="http://www.w3.org/2000/svg">
<g clip-path="url(#clip0_357_1664)">
<path d="M15.584 20.1667V18.3334" stroke="black" stroke-opacity="0.9" stroke-width="1.5" stroke-linecap="round" stroke-linejoin="round"/>
<path d="M8.25 13.75L13.75 8.25" stroke="black" stroke-opacity="0.9" stroke-width="1.5" stroke-linecap="round" stroke-linejoin="round"/>
<path d="M10.084 5.5L10.5084 5.00866C11.3681 4.14913 12.534 3.6663 13.7496 3.66638C14.9652 3.66647 16.1311 4.14947 16.9906 5.00912C17.8501 5.86878 18.333 7.03467 18.3329 8.25032C18.3328 9.46597 17.8498 10.6318 16.9902 11.4913L16.5007 11.9167" stroke="black" stroke-opacity="0.9" stroke-width="1.5" stroke-linecap="round" stroke-linejoin="round"/>
<path d="M11.9161 16.5L11.5522 16.9895C10.6825 17.8495 9.50879 18.3319 8.28569 18.3319C7.06259 18.3319 5.88883 17.8495 5.01915 16.9895C4.59047 16.5657 4.25015 16.061 4.01788 15.5047C3.78561 14.9484 3.66602 14.3515 3.66602 13.7487C3.66602 13.1458 3.78561 12.549 4.01788 11.9927C4.25015 11.4364 4.59047 10.9317 5.01915 10.5078L5.49948 10.0834" stroke="black" stroke-opacity="0.9" stroke-width="1.5" stroke-linecap="round" stroke-linejoin="round"/>
<path d="M18.334 15.5834H20.1673" stroke="black" stroke-opacity="0.9" stroke-width="1.5" stroke-linecap="round" stroke-linejoin="round"/>
<path d="M1.83398 6.41663H3.66732" stroke="black" stroke-opacity="0.9" stroke-width="1.5" stroke-linecap="round" stroke-linejoin="round"/>
<path d="M6.41602 1.83337V3.66671" stroke="black" stroke-opacity="0.9" stroke-width="1.5" stroke-linecap="round" stroke-linejoin="round"/>
</g>
<defs>
<clipPath id="clip0_357_1664">
<rect width="22" height="22" fill="white"/>
</clipPath>
</defs>
</svg>
