<svg width="20" height="21" viewBox="0 0 20 21" fill="none" xmlns="http://www.w3.org/2000/svg">
<path d="M10.0912 20.1069C15.5231 20.1069 19.9265 15.7035 19.9265 10.2716C19.9265 4.83971 15.5231 0.436279 10.0912 0.436279C4.65929 0.436279 0.255859 4.83971 0.255859 10.2716C0.255859 15.7035 4.65929 20.1069 10.0912 20.1069Z" fill="black" fill-opacity="0.9"/>
<path d="M4.47222 10.0562C4.47222 10.0562 9.34414 7.98351 11.0338 7.25367C11.6815 6.96176 13.8781 6.02756 13.8781 6.02756C13.8781 6.02756 14.8919 5.61888 14.8074 6.61143C14.7793 7.02014 14.554 8.45057 14.3287 9.99781C13.9907 12.1873 13.6246 14.5811 13.6246 14.5811C13.6246 14.5811 13.5683 15.2525 13.0896 15.3693C12.6109 15.4861 11.8223 14.9606 11.6815 14.8438C11.5689 14.7563 9.56942 13.4426 8.83723 12.8003C8.64009 12.6252 8.41481 12.2749 8.86537 11.8662C9.87919 10.9028 11.0901 9.70589 11.8223 8.94688C12.1603 8.59655 12.4982 7.77915 11.0901 8.7717C9.09068 10.2022 7.11939 11.545 7.11939 11.545C7.11939 11.545 6.66879 11.837 5.82396 11.5742C4.9791 11.3115 3.99345 10.9612 3.99345 10.9612C3.99345 10.9612 3.31761 10.5233 4.47222 10.0562Z" fill="white"/>
</svg>
