<svg width="22" height="22" viewBox="0 0 22 22" fill="none" xmlns="http://www.w3.org/2000/svg">
<path d="M7.11078 16.5219L7.78772 16.9174C8.9293 17.5831 10.2277 17.9327 11.5492 17.93C13.0286 17.93 14.4748 17.4913 15.7049 16.6694C16.935 15.8474 17.8937 14.6792 18.4598 13.3124C19.026 11.9457 19.1741 10.4417 18.8855 8.9907C18.5969 7.53972 17.8845 6.20691 16.8384 5.16081C15.7923 4.11472 14.4595 3.40232 13.0085 3.1137C11.5575 2.82508 10.0535 2.97321 8.68676 3.53936C7.31996 4.1055 6.15175 5.06423 5.32984 6.29431C4.50792 7.52439 4.06923 8.97057 4.06923 10.45C4.0665 11.7719 4.41637 13.0707 5.08277 14.2124L5.47734 14.8893L4.86679 17.1343L7.11078 16.5219ZM2.20297 19.8L3.46709 15.1549C2.63409 13.727 2.19647 12.103 2.19923 10.45C2.19923 5.28597 6.38522 1.09998 11.5492 1.09998C16.7132 1.09998 20.8992 5.28597 20.8992 10.45C20.8992 15.614 16.7132 19.8 11.5492 19.8C9.89687 19.8026 8.2736 19.3653 6.84618 18.533L2.20297 19.8ZM8.17481 6.06295C8.3001 6.0536 8.42633 6.0536 8.55162 6.05921C8.60211 6.06295 8.6526 6.06856 8.70309 6.07417C8.85175 6.091 9.01538 6.1817 9.07054 6.30699C9.34917 6.93905 9.62032 7.57578 9.88212 8.21439C9.94009 8.35651 9.9055 8.53883 9.79517 8.71648C9.73907 8.80718 9.65118 8.93434 9.54926 9.0643C9.44361 9.19988 9.2164 9.44859 9.2164 9.44859C9.2164 9.44859 9.12384 9.55892 9.15937 9.69636C9.17246 9.74872 9.21547 9.82446 9.25474 9.88804L9.3099 9.97686C9.54926 10.3761 9.8709 10.781 10.2636 11.1624C10.3758 11.2709 10.4852 11.3822 10.603 11.4859C11.0406 11.8721 11.5361 12.1872 12.071 12.4209L12.0756 12.4228C12.1551 12.4574 12.1953 12.4761 12.3112 12.5257C12.3692 12.55 12.4291 12.5705 12.4898 12.5874C12.5526 12.6034 12.6188 12.6004 12.6799 12.5787C12.741 12.5571 12.7942 12.5178 12.833 12.4658C13.5099 11.6458 13.5716 11.5925 13.5772 11.5925V11.5944C13.6243 11.5505 13.6801 11.5173 13.7411 11.4968C13.8021 11.4763 13.8667 11.4691 13.9307 11.4757C13.9868 11.4794 14.0438 11.4897 14.0962 11.5131C14.5926 11.7403 15.4052 12.0946 15.4052 12.0946L15.9493 12.3387C16.041 12.3826 16.1242 12.4864 16.127 12.5864C16.1307 12.6491 16.1363 12.7501 16.1148 12.9352C16.0849 13.1774 16.012 13.4681 15.939 13.6206C15.8891 13.7245 15.8228 13.8199 15.7427 13.9029C15.6483 14.002 15.5451 14.0921 15.4341 14.1722C15.3575 14.2302 15.3173 14.2564 15.3173 14.2564C15.201 14.3301 15.0815 14.3987 14.9592 14.4621C14.7184 14.5899 14.4525 14.6633 14.1803 14.6771C14.0073 14.6865 13.8344 14.6995 13.6605 14.6902C13.653 14.6902 13.1294 14.6088 13.1294 14.6088C11.8 14.2592 10.5706 13.6042 9.53898 12.6958C9.32767 12.5098 9.13132 12.3097 8.93123 12.1105C8.10095 11.2831 7.47169 10.3901 7.08928 9.54676C6.89453 9.13302 6.78938 8.68281 6.78073 8.22561C6.77721 7.65782 6.96311 7.10508 7.309 6.65481C7.37726 6.56692 7.44177 6.47529 7.55304 6.36963C7.67085 6.25743 7.74658 6.19759 7.82793 6.15645C7.93608 6.10225 8.05407 6.07045 8.17481 6.06295Z" fill="black" fill-opacity="0.9"/>
</svg>
