<svg width="20" height="20" viewBox="0 0 20 20" fill="none" xmlns="http://www.w3.org/2000/svg">
<path d="M6.46506 15.0199L7.08046 15.3794C8.11826 15.9847 9.29861 16.3025 10.5 16.3C11.8449 16.3 13.1596 15.9012 14.2779 15.154C15.3961 14.4068 16.2677 13.3448 16.7824 12.1022C17.2971 10.8597 17.4317 9.49245 17.1693 8.17338C16.907 6.85431 16.2593 5.64267 15.3083 4.69167C14.3573 3.74068 13.1457 3.09304 11.8266 2.83066C10.5075 2.56828 9.1403 2.70294 7.89776 3.21762C6.65522 3.73229 5.59321 4.60387 4.84602 5.72212C4.09882 6.84037 3.70001 8.15508 3.70001 9.49999C3.69753 10.7018 4.01559 11.8825 4.62141 12.9204L4.98011 13.5358L4.42506 15.5766L6.46506 15.0199ZM2.00341 18L3.15261 13.7772C2.39534 12.4791 1.9975 11.0028 2.00001 9.49999C2.00001 4.80545 5.80546 1 10.5 1C15.1946 1 19 4.80545 19 9.49999C19 14.1945 15.1946 18 10.5 18C8.99787 18.0024 7.52217 17.6049 6.22451 16.8482L2.00341 18ZM7.43236 5.5118C7.54626 5.5033 7.66101 5.5033 7.77491 5.5084C7.82081 5.5118 7.86671 5.5169 7.91261 5.522C8.04776 5.5373 8.19651 5.61975 8.24666 5.73365C8.49996 6.30825 8.74646 6.8871 8.98446 7.46765C9.03716 7.59685 9.00571 7.7626 8.90541 7.9241C8.85441 8.00655 8.77451 8.12215 8.68186 8.24029C8.58581 8.36354 8.37926 8.58964 8.37926 8.58964C8.37926 8.58964 8.29511 8.68995 8.32741 8.8149C8.33931 8.8625 8.37841 8.93134 8.41411 8.98915L8.46426 9.0699C8.68186 9.43285 8.97426 9.80089 9.33126 10.1477C9.43326 10.2463 9.53271 10.3474 9.63981 10.4418C10.0376 10.7928 10.4881 11.0793 10.9743 11.2918L10.9786 11.2935C11.0508 11.3249 11.0874 11.3419 11.1928 11.387C11.2455 11.4091 11.2999 11.4278 11.3551 11.4431C11.4122 11.4576 11.4723 11.4549 11.5279 11.4352C11.5834 11.4156 11.6318 11.3798 11.6671 11.3326C12.2825 10.5871 12.3386 10.5387 12.3437 10.5387V10.5404C12.3864 10.5005 12.4372 10.4703 12.4926 10.4516C12.548 10.433 12.6068 10.4265 12.665 10.4324C12.716 10.4358 12.7678 10.4452 12.8154 10.4664C13.2668 10.673 14.0054 10.9951 14.0054 10.9951L14.5001 11.217C14.5834 11.2569 14.6591 11.3513 14.6616 11.4422C14.665 11.4992 14.6701 11.591 14.6506 11.7593C14.6234 11.9794 14.5571 12.2438 14.4908 12.3823C14.4453 12.4769 14.385 12.5635 14.3123 12.639C14.2265 12.7291 14.1326 12.811 14.0318 12.8838C13.9621 12.9365 13.9255 12.9603 13.9255 12.9603C13.8198 13.0274 13.7111 13.0898 13.6 13.1473C13.3811 13.2636 13.1394 13.3303 12.8919 13.3428C12.7347 13.3513 12.5774 13.3632 12.4193 13.3547C12.4125 13.3547 11.9365 13.2808 11.9365 13.2808C10.728 12.9629 9.61039 12.3674 8.67251 11.5417C8.48041 11.3725 8.30191 11.1906 8.12001 11.0096C7.36521 10.2573 6.79316 9.44559 6.44551 8.6789C6.26846 8.30277 6.17287 7.89348 6.16501 7.47785C6.16181 6.96168 6.33081 6.45918 6.64526 6.04985C6.70731 5.96995 6.76596 5.88665 6.86711 5.7906C6.97421 5.6886 7.04306 5.6342 7.11701 5.5968C7.21533 5.54752 7.32259 5.51861 7.43236 5.5118Z" fill="white"/>
</svg>
